<?xml version="1.0" encoding="UTF-8" standalone="no"?>
<svg
   height="48"
   width="48"
   version="1.1"
   id="svg12"
   sodipodi:docname="menu_book_FILL0_wght400_GRAD0_opsz48.svg"
   inkscape:version="1.2.1 (9c6d41e410, 2022-07-14)"
   xmlns:inkscape="http://www.inkscape.org/namespaces/inkscape"
   xmlns:sodipodi="http://sodipodi.sourceforge.net/DTD/sodipodi-0.dtd"
   xmlns="http://www.w3.org/2000/svg"
   xmlns:svg="http://www.w3.org/2000/svg">
  <defs
     id="defs16" />
  <sodipodi:namedview
     id="namedview14"
     pagecolor="#ffffff"
     bordercolor="#000000"
     borderopacity="0.25"
     inkscape:showpageshadow="2"
     inkscape:pageopacity="0.0"
     inkscape:pagecheckerboard="0"
     inkscape:deskcolor="#d1d1d1"
     showgrid="false"
     inkscape:zoom="17.4375"
     inkscape:cx="32"
     inkscape:cy="22.939068"
     inkscape:window-width="1920"
     inkscape:window-height="1017"
     inkscape:window-x="1912"
     inkscape:window-y="-8"
     inkscape:window-maximized="1"
     inkscape:current-layer="svg12" />
  <path
     d="M28 19.3v-2.4q1.65-.7 3.375-1.05Q33.1 15.5 35 15.5q1.3 0 2.55.2 1.25.2 2.45.5v2.2q-1.2-.45-2.425-.675Q36.35 17.5 35 17.5q-1.9 0-3.65.475T28 19.3Zm0 11v-2.45q1.65-.7 3.375-1.025Q33.1 26.5 35 26.5q1.3 0 2.55.2 1.25.2 2.45.5v2.2q-1.2-.45-2.425-.675Q36.35 28.5 35 28.5q-1.9 0-3.65.45T28 30.3Zm0-5.5v-2.4q1.65-.7 3.375-1.05Q33.1 21 35 21q1.3 0 2.55.2 1.25.2 2.45.5v2.2q-1.2-.45-2.425-.675Q36.35 23 35 23q-1.9 0-3.65.475T28 24.8ZM12.4 33q2.7 0 5.225.625 2.525.625 4.975 1.875V14.15q-2.25-1.5-4.875-2.325Q15.1 11 12.4 11q-1.9 0-3.725.475Q6.85 11.95 5 12.65v21.7q1.55-.7 3.525-1.025Q10.5 33 12.4 33Zm13.2 2.5q2.5-1.25 4.9-1.875Q32.9 33 35.6 33q1.9 0 3.925.3t3.475.8V12.65q-1.7-.85-3.6-1.25-1.9-.4-3.8-.4-2.7 0-5.225.825-2.525.825-4.775 2.325ZM24.1 40q-2.55-1.9-5.55-2.925T12.4 36.05q-1.85 0-3.6.45t-3.5 1.1q-1.15.55-2.225-.15Q2 36.75 2 35.45V12.3q0-.75.35-1.375T3.4 9.95q2.1-1 4.375-1.475Q10.05 8 12.4 8q3.15 0 6.125.85t5.575 2.6q2.55-1.75 5.475-2.6Q32.5 8 35.6 8q2.35 0 4.6.475 2.25.475 4.35 1.475.7.35 1.075.975T46 12.3v23.15q0 1.4-1.125 2.125-1.125.725-2.225.025-1.7-.7-3.45-1.125-1.75-.425-3.6-.425-3.15 0-6.05 1.05T24.1 40ZM13.8 23.55Z"
     id="path10" />
  <rect
     style="fill:#000000"
     id="rect174"
     width="2.2365592"
     height="16.573477"
     x="12.501792"
     y="14.451613" />
  <rect
     style="fill:#000000"
     id="rect230"
     width="11.182796"
     height="2.1218638"
     x="8.0860214"
     y="18.637993" />
</svg>
