<?xml version="1.0" standalone="yes"?>
<svg xmlns="http://www.w3.org/2000/svg" width="456" height="456">
<path style="fill:#fafaf9; stroke:none;" d="M0 0L0 105L456 105L456 0L0 0z"/>
<path style="fill:#8b72e3; stroke:none;" d="M0 105L0 345L456 345L456 105L232 105L232 108L340 108L340 177L230 177L230 125C230 120.249 232.139 109.663 227 108L227 177L116 177L116 108L225 108L225 105L0 105z"/>
<path style="fill:#040404; stroke:none;" d="M225 105L225 108L231 108L231 105L225 105z"/>
<path style="fill:#5638be; stroke:none;" d="M231 105L231 108L232 108L231 105M226 106L226 107L230 107L226 106z"/>
<path style="fill:#fafaf9; stroke:none;" d="M3.16667 107.5L2 121L2 162L3.16667 177.5L26 178L88 178L112.833 177.5L114 162L114 121L112.833 107.5L90 107L28 107L3.16667 107.5M116 108L116 177L227 177L227 108L116 108M229 108C234.81 128.07 230 156.026 230 177L340 177L340 108L229 108M343 108L343 177L454 177L454 108L343 108z"/>
<path style="fill:#8b72e3; stroke:none;" d="M31 128L32 129L31 128z"/>
<path style="fill:#5638be; stroke:none;" d="M32.3333 128.667L32.6667 129.333L32.3333 128.667z"/>
<path style="fill:#040404; stroke:none;" d="M33 128L33 129C41.6903 135.901 26.4915 140.629 32 129C23.668 131.696 32.2091 139.739 37 141L35 139L35 138C39.6156 134.615 37.8744 129.976 33 128z"/>
<path style="fill:#5638be; stroke:none;" d="M34 128L35 129L34 128z"/>
<path style="fill:#8b72e3; stroke:none;" d="M68.3333 128.667L68.6667 129.333L68.3333 128.667z"/>
<path style="fill:#040404; stroke:none;" d="M69.3333 128.667L69.6667 129.333L69.3333 128.667z"/>
<path style="fill:#8b72e3; stroke:none;" d="M33 129L34 130L33 129M36 129L37 130L36 129z"/>
<path style="fill:#040404; stroke:none;" d="M64 129C63.2127 132.74 63.025 137.714 67 139L67 138C64.5164 135.976 64.5164 134.024 67 132L67 131L64 129z"/>
<path style="fill:#fafaf9; stroke:none;" d="M31.3333 130.5C28.3284 132.738 31.2007 139.095 34.8333 136.5C37.8862 134.319 34.9581 127.801 31.3333 130.5z"/>
<path style="fill:#8b72e3; stroke:none;" d="M35 130L36 131L35 130M51 130L52 131L51 130M58.6667 130.333L59.3333 130.667L58.6667 130.333M63 130L64 131L63 130M75 130L76 131L75 130M84 130L85 131L84 130M28.3333 131.667L28.6667 132.333L28.3333 131.667M30 131L31 132L30 131z"/>
<path style="fill:#5638be; stroke:none;" d="M37 131L38 132L37 131z"/>
<path style="fill:#8b72e3; stroke:none;" d="M39 131L39 136L40 136L39 131z"/>
<path style="fill:#040404; stroke:none;" d="M40 131C40 134.751 39.2985 137.367 43 139L40 131M45 131L44 138C46.8247 136.849 46.5608 133.146 45 131z"/>
<path style="fill:#8b72e3; stroke:none;" d="M46 131L46 138L47 138L46 131z"/>
<path style="fill:#5638be; stroke:none;" d="M49 131L50 132L49 131z"/>
<path style="fill:#040404; stroke:none;" d="M54 138L54 137L49 135L55 134C50.8029 124.487 43.6297 141.548 54 138z"/>
<path style="fill:#8b72e3; stroke:none;" d="M56 131L58 133L56 131z"/>
<path style="fill:#040404; stroke:none;" d="M57 131L57 132L61 132L57 131z"/>
<path style="fill:#8b72e3; stroke:none;" d="M61 131L62 132L61 131z"/>
<path style="fill:#5638be; stroke:none;" d="M62 131L63 132L62 131z"/>
<path style="fill:#8b72e3; stroke:none;" d="M68 131L69 139L70 139L68 131z"/>
<path style="fill:#040404; stroke:none;" d="M69 131L69 138L70 138L69 131M73 138L74 138C72.9243 131.187 78.9006 131.942 75 139C86.7962 134.218 67.7863 125.617 73 138M81 131L81 138L82 138C82.0922 134.498 82.5695 133.02 86 132L86 138L87 138L87 131L81 131z"/>
<path style="fill:#8b72e3; stroke:none;" d="M48 132L49 133L48 132z"/>
<path style="fill:#fafaf9; stroke:none;" d="M50 132L50 134L53 134L53 132L50 132z"/>
<path style="fill:#8b72e3; stroke:none;" d="M54 132L55 133L54 132z"/>
<path style="fill:#040404; stroke:none;" d="M56 132L61 138C61.4626 134.577 59.1287 133.564 56 132z"/>
<path style="fill:#5638be; stroke:none;" d="M63 132L63 137L64 137L63 132z"/>
<path style="fill:#fafaf9; stroke:none;" d="M74 132L74 137L77 137L77 132L74 132z"/>
<path style="fill:#5638be; stroke:none;" d="M78 132L79 133L78 132z"/>
<path style="fill:#8b72e3; stroke:none;" d="M87 132L87 138L88 138L87 132z"/>
<path style="fill:#5638be; stroke:none;" d="M28 133L29 134L28 133z"/>
<path style="fill:#8b72e3; stroke:none;" d="M73 133L73 136L74 136L73 133z"/>
<path style="fill:#5638be; stroke:none;" d="M77 133L78 134L77 133z"/>
<path style="fill:#8b72e3; stroke:none;" d="M82 133L82 138L83 138L82 133M28.3333 134.667L28.6667 135.333L28.3333 134.667z"/>
<path style="fill:#5638be; stroke:none;" d="M54 134L55 135L54 134M57 134L58 135L57 134z"/>
<path style="fill:#8b72e3; stroke:none;" d="M60 134L61 135L60 134M77 134L78 135L77 134M30 135L31 136L30 135z"/>
<path style="fill:#5638be; stroke:none;" d="M37 135L38 136L37 135M49 135L50 136L49 135M59 135L60 136L59 135z"/>
<path style="fill:#8b72e3; stroke:none;" d="M61 135L62 136L61 135z"/>
<path style="fill:#5638be; stroke:none;" d="M77 135L78 136L77 135z"/>
<path style="fill:#8b72e3; stroke:none;" d="M35 136L36 137L35 136M44 136L45 137L44 136z"/>
<path style="fill:#5638be; stroke:none;" d="M48 136L49 137L48 136z"/>
<path style="fill:#8b72e3; stroke:none;" d="M32.6667 137.333L33.3333 137.667L32.6667 137.333M36 137L37 138L36 137M42 137L43 138L42 137z"/>
<path style="fill:#5638be; stroke:none;" d="M43.3333 137.667L43.6667 138.333L43.3333 137.667z"/>
<path style="fill:#8b72e3; stroke:none;" d="M51.6667 137.333L52.3333 137.667L51.6667 137.333M54 137L55 138L54 137z"/>
<path style="fill:#040404; stroke:none;" d="M56 137L57 138L56 137z"/>
<path style="fill:#5638be; stroke:none;" d="M57.3333 137.667L57.6667 138.333L57.3333 137.667z"/>
<path style="fill:#8b72e3; stroke:none;" d="M58 137L59 138L58 137z"/>
<path style="fill:#5638be; stroke:none;" d="M59.3333 137.667L59.6667 138.333L59.3333 137.667z"/>
<path style="fill:#8b72e3; stroke:none;" d="M61 137L62 138L61 137M63 137L64 138L63 137z"/>
<path style="fill:#5638be; stroke:none;" d="M65 137L66 138L65 137z"/>
<path style="fill:#8b72e3; stroke:none;" d="M66 137L67 138L66 137z"/>
<path style="fill:#5638be; stroke:none;" d="M74.3333 137.667L74.6667 138.333L74.3333 137.667z"/>
<path style="fill:#8b72e3; stroke:none;" d="M75 137L76 138L75 137M162 137L163 138L162 137z"/>
<path style="fill:#5638be; stroke:none;" d="M163 137L163 138L163 139L166 139L166 138L163 137z"/>
<path style="fill:#8b72e3; stroke:none;" d="M165.667 137.333L166.333 137.667L165.667 137.333M177 137L178 138L177 137z"/>
<path style="fill:#040404; stroke:none;" d="M178 137L178 147L179 147L178 137z"/>
<path style="fill:#8b72e3; stroke:none;" d="M181.333 137.667L181.667 138.333L181.333 137.667z"/>
<path style="fill:#5638be; stroke:none;" d="M182 137L183 138L182 137z"/>
<path style="fill:#8b72e3; stroke:none;" d="M273 137L273 138L278 138L273 137M383 137L383 138L387 138L387 137L383 137z"/>
<path style="fill:#5638be; stroke:none;" d="M384.667 137.333L385.333 137.667L384.667 137.333M390 137L391 138L390 137z"/>
<path style="fill:#040404; stroke:none;" d="M391 137L391 147L392 147L391 137z"/>
<path style="fill:#5638be; stroke:none;" d="M409 137L410 138L409 137z"/>
<path style="fill:#8b72e3; stroke:none;" d="M31 138L32 139L31 138z"/>
<path style="fill:#5638be; stroke:none;" d="M41 138L42 139L41 138z"/>
<path style="fill:#8b72e3; stroke:none;" d="M45 138L46 139L45 138M50 138L51 139L50 138M53 138L54 139L53 138M56 138L57 139L56 138z"/>
<path style="fill:#040404; stroke:none;" d="M58 138L59 139L58 138z"/>
<path style="fill:#8b72e3; stroke:none;" d="M60 138L61 139L60 138M64 138L65 139L64 138z"/>
<path style="fill:#5638be; stroke:none;" d="M76 138L77 139L76 138z"/>
<path style="fill:#8b72e3; stroke:none;" d="M81 138L82 139L81 138M86 138L87 139L86 138z"/>
<path style="fill:#5638be; stroke:none;" d="M161 138L162 139L161 138z"/>
<path style="fill:#040404; stroke:none;" d="M162 138L165 147C169.591 145.129 163.473 140.494 162 138z"/>
<path style="fill:#8b72e3; stroke:none;" d="M164 138L165 139L164 138z"/>
<path style="fill:#040404; stroke:none;" d="M166 138L167 139L166 138M182 138L183 139L182 138z"/>
<path style="fill:#5638be; stroke:none;" d="M273 138L273 147L274 147L273 138z"/>
<path style="fill:#040404; stroke:none;" d="M274 138L274 147L275 147L275 139C279.977 139.524 281.306 143.214 277 146C280.678 148.006 283.308 138 274 138z"/>
<path style="fill:#5638be; stroke:none;" d="M279 138L280 139L279 138z"/>
<path style="fill:#8b72e3; stroke:none;" d="M380 139L380 140L383 140L380 139z"/>
<path style="fill:#040404; stroke:none;" d="M382.667 138.333L383.333 138.667L382.667 138.333M386.667 138.333L387.333 138.667L386.667 138.333z"/>
<path style="fill:#8b72e3; stroke:none;" d="M390 138L390 146L391 146L390 138M408 138L409 139L408 138z"/>
<path style="fill:#040404; stroke:none;" d="M409 138L410 139L409 138z"/>
<path style="fill:#8b72e3; stroke:none;" d="M162.333 139.667L162.667 140.333L162.333 139.667z"/>
<path style="fill:#fafaf9; stroke:none;" d="M275 139L275 146C281.264 145.831 281.264 139.169 275 139z"/>
<path style="fill:#5638be; stroke:none;" d="M280 139L281 140L280 139z"/>
<path style="fill:#040404; stroke:none;" d="M381 139C379.518 142.519 379.706 144.869 383 147L381 139M170 147L171 147C170.073 143.477 170.378 142.077 174 141L172 148C183.158 143.218 164.907 134.904 170 147z"/>
<path style="fill:#8b72e3; stroke:none;" d="M174 140L175 141L174 140M181 140L183 148L181 140z"/>
<path style="fill:#040404; stroke:none;" d="M182 140L182 147L183 147L182 140z"/>
<path style="fill:#8b72e3; stroke:none;" d="M279 140L280 141L279 140z"/>
<path style="fill:#5638be; stroke:none;" d="M284 140L285 141L284 140z"/>
<path style="fill:#040404; stroke:none;" d="M287 148L284 144L289 144C288.133 135.975 278.497 144.356 287 148z"/>
<path style="fill:#5638be; stroke:none;" d="M288 140L289 141L288 140M292 140L293 141L292 140z"/>
<path style="fill:#040404; stroke:none;" d="M295 148C290.859 140.507 297.684 140.602 296 147C307.22 137.858 280.322 141.709 295 148z"/>
<path style="fill:#5638be; stroke:none;" d="M381 140L382 141L381 140z"/>
<path style="fill:#040404; stroke:none;" d="M395 147L396 147C394.316 140.602 401.141 140.507 397 148C408.158 143.218 389.907 134.904 395 147z"/>
<path style="fill:#5638be; stroke:none;" d="M399 140L400 141L399 140z"/>
<path style="fill:#040404; stroke:none;" d="M403 140L403 147L404 147L407 141L407 140L403 140z"/>
<path style="fill:#8b72e3; stroke:none;" d="M404 140L405 141L404 140M408 140L409 148L410 148L408 140z"/>
<path style="fill:#040404; stroke:none;" d="M409 140L409 147L410 147L409 140M413 140L413 141L417 141L417 143C412.729 143.112 410.168 145.868 415 148L413 144L417 144L416 147C420.864 145.018 417.177 140.11 413 140z"/>
<path style="fill:#8b72e3; stroke:none;" d="M417 140L418 141L417 140z"/>
<path style="fill:#5638be; stroke:none;" d="M161 141L162 142L161 141z"/>
<path style="fill:#8b72e3; stroke:none;" d="M163 141L164 142L163 141z"/>
<path style="fill:#fafaf9; stroke:none;" d="M171 141L170 145L174 146L174 141L171 141z"/>
<path style="fill:#8b72e3; stroke:none;" d="M175 141L176 142L175 141M281 141L281 144L282 144L281 141M283 141L284 142L283 141z"/>
<path style="fill:#fafaf9; stroke:none;" d="M285 141L285 143L288 143L288 141L285 141z"/>
<path style="fill:#8b72e3; stroke:none;" d="M289 141L290 142L289 141M291 141L292 142L291 141z"/>
<path style="fill:#fafaf9; stroke:none;" d="M293 141L293 146C296.484 145.602 296.691 144.283 296 141L293 141z"/>
<path style="fill:#8b72e3; stroke:none;" d="M381 141L381 144L382 144L381 141z"/>
<path style="fill:#fafaf9; stroke:none;" d="M396 141C395.309 144.283 395.517 145.602 399 146L399 141L396 141z"/>
<path style="fill:#8b72e3; stroke:none;" d="M400 141L401 142L400 141M416.333 141.667L416.667 142.333L416.333 141.667M162 142L163 143L162 142z"/>
<path style="fill:#5638be; stroke:none;" d="M165 142L166 143L165 142z"/>
<path style="fill:#8b72e3; stroke:none;" d="M170 142L171 143L170 142z"/>
<path style="fill:#5638be; stroke:none;" d="M284 142L285 143L284 142M289.333 142.667L289.667 143.333L289.333 142.667M292 142L292 145L293 145L292 142z"/>
<path style="fill:#8b72e3; stroke:none;" d="M296 142L297 143L296 142M379 142L380 143L379 142M384 142L387 144L387 143L384 142z"/>
<path style="fill:#5638be; stroke:none;" d="M385 142L385 143L388 143L385 142z"/>
<path style="fill:#8b72e3; stroke:none;" d="M395 142L396 143L395 142z"/>
<path style="fill:#5638be; stroke:none;" d="M399 142L399 145L400 145L399 142z"/>
<path style="fill:#8b72e3; stroke:none;" d="M404 142L405 143L404 142M164 143L165 144L164 143M168 143L169 144L168 143z"/>
<path style="fill:#5638be; stroke:none;" d="M174.333 143.667L174.667 144.333L174.333 143.667z"/>
<path style="fill:#040404; stroke:none;" d="M387 143L387 147L388 147L387 143z"/>
<path style="fill:#8b72e3; stroke:none;" d="M388 143L389 144L388 143M167 144L168 145L167 144M279 144L280 145L279 144z"/>
<path style="fill:#5638be; stroke:none;" d="M284 144L285 145L284 144z"/>
<path style="fill:#8b72e3; stroke:none;" d="M296 144L297 145L296 144z"/>
<path style="fill:#5638be; stroke:none;" d="M381 144L382 145L381 144z"/>
<path style="fill:#8b72e3; stroke:none;" d="M395 144L396 145L395 144z"/>
<path style="fill:#5638be; stroke:none;" d="M413 144L414 145L413 144z"/>
<path style="fill:#fafaf9; stroke:none;" d="M414 144L414 146L416 146L416 144L414 144z"/>
<path style="fill:#8b72e3; stroke:none;" d="M416 144L417 145L416 144M170 145L171 146L170 145M175 145L176 146L175 145z"/>
<path style="fill:#5638be; stroke:none;" d="M280 145L281 146L280 145M283 145L284 146L283 145M291 145L292 146L291 145M296 145L297 146L296 145z"/>
<path style="fill:#8b72e3; stroke:none;" d="M380 145L381 146L380 145z"/>
<path style="fill:#5638be; stroke:none;" d="M395 145L396 146L395 145M400 145L401 146L400 145z"/>
<path style="fill:#8b72e3; stroke:none;" d="M413 145L414 146L413 145z"/>
<path style="fill:#5638be; stroke:none;" d="M416 145L417 146L416 145z"/>
<path style="fill:#8b72e3; stroke:none;" d="M64.6667 146.333L65.3333 146.667L64.6667 146.333z"/>
<path style="fill:#040404; stroke:none;" d="M161 146L162 147L161 146z"/>
<path style="fill:#8b72e3; stroke:none;" d="M161 147L161 148L166 148L161 147M169 146L170 147L169 146M171.667 146.333L172.333 146.667L171.667 146.333z"/>
<path style="fill:#5638be; stroke:none;" d="M275.667 146.333L276.333 146.667L275.667 146.333M279 146L280 147L279 146z"/>
<path style="fill:#8b72e3; stroke:none;" d="M286 146L286 147L290 147L290 146L286 146z"/>
<path style="fill:#040404; stroke:none;" d="M288 146L289 147L288 146z"/>
<path style="fill:#8b72e3; stroke:none;" d="M294.667 146.333L295.333 146.667L294.667 146.333M297 146L298 147L297 146z"/>
<path style="fill:#5638be; stroke:none;" d="M381 146L382 147L381 146M383.333 146.667L383.667 147.333L383.333 146.667z"/>
<path style="fill:#8b72e3; stroke:none;" d="M384.667 146.333L385.333 146.667L384.667 146.333z"/>
<path style="fill:#5638be; stroke:none;" d="M386 146L385 148L387 148L386 146z"/>
<path style="fill:#8b72e3; stroke:none;" d="M388 146L389 147L388 146z"/>
<path style="fill:#5638be; stroke:none;" d="M390 146L391 147L390 146z"/>
<path style="fill:#8b72e3; stroke:none;" d="M394 146L395 147L394 146M396.667 146.333L397.333 146.667L396.667 146.333M414.667 146.333L415.333 146.667L414.667 146.333z"/>
<path style="fill:#040404; stroke:none;" d="M32 147L32 157L33 157L33 150L34 150L40 157L40 148L39 148L39 155L38 155L32 147z"/>
<path style="fill:#8b72e3; stroke:none;" d="M33 147L34 148L33 147M38 147L39 148L38 147z"/>
<path style="fill:#5638be; stroke:none;" d="M39 147L40 148L39 147z"/>
<path style="fill:#040404; stroke:none;" d="M64 147C64 150.794 62.386 156.457 67 157L67 151L64 147z"/>
<path style="fill:#5638be; stroke:none;" d="M65 147L65 150L66 150L65 147M162 147L163 148L162 147z"/>
<path style="fill:#040404; stroke:none;" d="M163 147L164 148L163 147z"/>
<path style="fill:#5638be; stroke:none;" d="M164 147L165 148L164 147M171 147L172 148L171 147z"/>
<path style="fill:#8b72e3; stroke:none;" d="M173 147L174 148L173 147M178 147L179 148L178 147M273 147L273 148L278 148L273 147M285 147L286 148L285 147z"/>
<path style="fill:#5638be; stroke:none;" d="M287 147L288 148L287 147z"/>
<path style="fill:#8b72e3; stroke:none;" d="M293 147L294 148L293 147z"/>
<path style="fill:#5638be; stroke:none;" d="M295 147L296 148L295 147z"/>
<path style="fill:#8b72e3; stroke:none;" d="M382 147L383 148L382 147z"/>
<path style="fill:#040404; stroke:none;" d="M384 147L385 148L384 147z"/>
<path style="fill:#8b72e3; stroke:none;" d="M387 147L388 148L387 147M390.667 147.333L391.333 147.667L390.667 147.333z"/>
<path style="fill:#5638be; stroke:none;" d="M396 147L397 148L396 147z"/>
<path style="fill:#8b72e3; stroke:none;" d="M398 147L399 148L398 147M403 147L404 148L403 147z"/>
<path style="fill:#5638be; stroke:none;" d="M413 147L414 148L413 147M415 147L416 148L415 147z"/>
<path style="fill:#8b72e3; stroke:none;" d="M417 147L418 148L417 147z"/>
<path style="fill:#5638be; stroke:none;" d="M38 148L38 153L39 153L38 148z"/>
<path style="fill:#8b72e3; stroke:none;" d="M43 149L44 150L43 149M48 149L49 150L48 149M51 149L52 150L51 149M53 149L54 150L53 149z"/>
<path style="fill:#5638be; stroke:none;" d="M54.3333 149.667L54.6667 150.333L54.3333 149.667z"/>
<path style="fill:#8b72e3; stroke:none;" d="M55 149L56 150L55 149M58 149L59 150L58 149z"/>
<path style="fill:#5638be; stroke:none;" d="M59 149L62 151L62 150L59 149z"/>
<path style="fill:#8b72e3; stroke:none;" d="M60 149L61 150L60 149z"/>
<path style="fill:#5638be; stroke:none;" d="M67.3333 149.667L67.6667 150.333L67.3333 149.667z"/>
<path style="fill:#8b72e3; stroke:none;" d="M68 149L69 150L68 149z"/>
<path style="fill:#5638be; stroke:none;" d="M75.3333 149.667L75.6667 150.333L75.3333 149.667z"/>
<path style="fill:#8b72e3; stroke:none;" d="M76 149L77 150L76 149M81 149L82 150L81 149M83 149L84 150L83 149z"/>
<path style="fill:#5638be; stroke:none;" d="M84 149L85 150L84 149z"/>
<path style="fill:#8b72e3; stroke:none;" d="M85.3333 149.667L85.6667 150.333L85.3333 149.667z"/>
<path style="fill:#fafaf9; stroke:none;" d="M33.3333 150.667L33.6667 151.333L33.3333 150.667z"/>
<path style="fill:#8b72e3; stroke:none;" d="M35 150L36 151L35 150z"/>
<path style="fill:#040404; stroke:none;" d="M42 150L45 157L44 150L42 150M47 150L46 157C49.8404 156.548 50.408 151.388 47 150M51 150L51 157L52 157L54 150L51 150M55 150L56 157L57 157L59 151L55 150M60 150L61 151L60 150M68 150L68 157C71.8338 155.594 71.9446 151.276 68 150z"/>
<path style="fill:#5638be; stroke:none;" d="M73 150L74 151L73 150z"/>
<path style="fill:#040404; stroke:none;" d="M74 150C72.65 153.206 72.3235 155.811 76 157L76 156L74 150M76 150L76 151L78 153L79 153L76 150z"/>
<path style="fill:#8b72e3; stroke:none;" d="M78 150L79 151L78 150z"/>
<path style="fill:#040404; stroke:none;" d="M81 150L81 157L82 157L85 151L81 150z"/>
<path style="fill:#8b72e3; stroke:none;" d="M34 151L35 152L34 151z"/>
<path style="fill:#5638be; stroke:none;" d="M47 151L47 154L48 154L47 151z"/>
<path style="fill:#8b72e3; stroke:none;" d="M55 151L56 152L55 151M57 151L58 152L57 151z"/>
<path style="fill:#040404; stroke:none;" d="M61 151L61 157L62 157L61 151z"/>
<path style="fill:#fafaf9; stroke:none;" d="M66 151L66 156L69 156L69 151L66 151z"/>
<path style="fill:#8b72e3; stroke:none;" d="M74 151L77 153L77 152L74 151z"/>
<path style="fill:#fafaf9; stroke:none;" d="M75.6667 151.333L76.3333 151.667L75.6667 151.333z"/>
<path style="fill:#5638be; stroke:none;" d="M77 151L74 153L74 154L79 154L77 151z"/>
<path style="fill:#8b72e3; stroke:none;" d="M33 152L33 157L34 157L33 152z"/>
<path style="fill:#5638be; stroke:none;" d="M52 152L52 157L53 157L52 152z"/>
<path style="fill:#8b72e3; stroke:none;" d="M60 152L60 156L61 156L60 152z"/>
<path style="fill:#5638be; stroke:none;" d="M65.3333 152.667L65.6667 153.333L65.3333 152.667M69 152L70 153L69 152z"/>
<path style="fill:#8b72e3; stroke:none;" d="M72 152L73 153L72 152M82 152L82 157L83 157L82 152M37.6667 153.333L38.3333 153.667L37.6667 153.333M57 153L57 157L58 157L57 153M69 153L70 154L69 153z"/>
<path style="fill:#5638be; stroke:none;" d="M72 153L73 154L72 153z"/>
<path style="fill:#8b72e3; stroke:none;" d="M36 154L37 155L36 154z"/>
<path style="fill:#5638be; stroke:none;" d="M38 154L39 155L38 154M69 154L70 155L69 154z"/>
<path style="fill:#8b72e3; stroke:none;" d="M72 154L73 155L72 154z"/>
<path style="fill:#5638be; stroke:none;" d="M42 155L43 156L42 155M70 155L71 156L70 155M74 155L75 156L74 155M45 156L46 157L45 156M60 156L61 157L60 156M67 156L68 157L67 156z"/>
<path style="fill:#8b72e3; stroke:none;" d="M73 156L74 157L73 156z"/>
<path style="fill:#5638be; stroke:none;" d="M76 156L77 157L76 156z"/>
<path style="fill:#040404; stroke:none;" d="M77.6667 156.333L78.3333 156.667L77.6667 156.333z"/>
<path style="fill:#8b72e3; stroke:none;" d="M32 157L33 158L32 157M44.6667 157.333L45.3333 157.667L44.6667 157.333M67.6667 157.333L68.3333 157.667L67.6667 157.333M75 157L75 158L78 158L75 157z"/>
<path style="fill:#040404; stroke:none;" d="M2 180L2 250L114 250L113 205L114 180L2 180M116 180L116 250L227 250L227 180L116 180M229 180L229 250L340 250L340 180L229 180z"/>
<path style="fill:#5638be; stroke:none;" d="M340 180L340 250L341 250L341 199L340 180z"/>
<path style="fill:#040404; stroke:none;" d="M343 180L343 250L454 250L454 180L343 180z"/>
<path style="fill:#5638be; stroke:none;" d="M113 181L113 249L114 249L114 200L113 181z"/>
<path style="fill:#f40101; stroke:none;" d="M47 228L51 228C52.9168 217.595 62.8126 217.61 65 228L69 228C68.1647 224.032 62.1951 203 58 203C55.1297 203 54.7378 206.957 54 209C51.7279 215.292 48.2177 221.39 47 228z"/>
<path style="fill:#040404; stroke:none;" d="M57 209L55 217L61 217L57 209z"/>
<path style="fill:#5638be; stroke:none;" d="M2 252L2 253L114 253L84 252L2 252M116 252L116 253L227 253L197 252L116 252M229 252L229 253L340 253L340 323C344.085 317.383 341 299.366 341 292L341 264C341 261.325 342.114 255.409 340.5 253.167C337.697 249.273 317.807 252 313 252L229 252M343 252L343 253L454 253L424 252L343 252z"/>
<path style="fill:#040404; stroke:none;" d="M2 253L2 303L2.5 321.833L29 323L88 323L114 322L113 297L114 253L2 253M116 253L116 323L227 323L227 253L116 253M229 253L229 303L229.5 321.833L257 323L340 323L340 253L229 253M343 253L343 323L454 323L454 253L343 253z"/>
<path style="fill:#5638be; stroke:none;" d="M113 254L113 321L114 321L114 272L113 254z"/>
<path style="fill:#f40101; stroke:none;" d="M59 295L71 295L71 301L74 301L74 295L78 295L78 292L74 292L74 275C67.4811 275.686 59.1661 288.69 59 295M152 295L164 295L164 301L167 301L167 295L171 295L171 292L167 292L167 275C160.652 275.668 152.161 288.867 152 295M179 275.333C167.831 279.266 172.553 307.619 186 300.5C194.229 296.143 191.404 270.966 179 275.333M271 288C259.854 292.519 269.343 304.166 279 300.667C285.707 298.237 283.132 290.081 278 288C279.149 287.113 280.54 286.389 281.167 285C288.365 269.038 255.204 275.815 271 288M293 275.333C282.673 278.388 284.218 305.104 298 300.833C308.068 297.714 305.508 271.634 293 275.333M406 275.333C394.831 279.266 399.553 307.619 413 300.5C421.229 296.143 418.404 270.966 406 275.333M42 283L47 280L47 301L50 301L50 276C45.735 276.112 40.4996 278.374 42 283M379 276C381.11 280.782 388.325 279 393 279L383 301C389.621 300.821 396.507 282.248 397 276L379 276z"/>
<path style="fill:#040404; stroke:none;" d="M181 278.333C174.536 279.949 174.672 300.405 183 297.833C189.436 295.846 188.428 276.476 181 278.333M273 278.333C268.082 280.178 271.674 287.536 276 285.5C281.13 283.086 278.179 276.391 273 278.333M294 278.333C287.421 280.081 288.132 300.837 297 297.833C302.317 296.032 301.888 276.238 294 278.333M408 278.333C401.536 279.949 401.672 300.405 410 297.833C416.2 295.918 415.551 276.446 408 278.333M70 281L63 292L71 292L70 281M163 281L156 292L164 292L163 281M274 289.5C267.716 290.385 269.182 299.087 276 298C282.183 297.014 279.228 288.764 274 289.5z"/>
<path style="fill:#5638be; stroke:none;" d="M2 322L3 323L2 322M113 322L114 323L113 322M229 322L230 323L229 322M3.16667 325.5C0.929025 327.111 0.929036 340.889 3.16667 342.5C5.97097 344.519 24.0181 344.26 27 342.5C29.9707 340.747 30.4902 327.663 27.6667 325.5C25.1634 323.583 5.72503 323.658 3.16667 325.5M31.3333 325.5C28.5097 327.663 29.0293 340.747 32 342.5C35.1752 344.374 51.8248 344.374 55 342.5C57.8419 340.823 58.5658 327.467 55.8333 325.5C53.275 323.658 33.8366 323.583 31.3333 325.5M60.1667 325.5C57.929 327.111 57.929 340.889 60.1667 342.5C62.7331 344.348 81.2669 344.348 83.8333 342.5C86.071 340.889 86.071 327.111 83.8333 325.5C81.2669 323.652 62.7331 323.652 60.1667 325.5M88.1667 325.5C85.4342 327.467 86.1581 340.823 89 342.5C92.1752 344.374 108.825 344.374 112 342.5C114.971 340.747 115.49 327.663 112.667 325.5C110.163 323.583 90.725 323.658 88.1667 325.5M117.167 325.5C114.929 327.111 114.929 340.889 117.167 342.5C119.409 344.114 125.325 343 128 343L158 343C161.121 343 167.454 344.213 169.833 341.833C171.95 339.716 172.209 327.447 169.667 325.5C167.401 323.765 160.764 325 158 325L128 325C125.325 325 119.409 323.886 117.167 325.5M227 325L203 325L188 325C184.661 325 176.032 323.433 173.333 325.5C170.394 327.751 171.142 340.59 174.167 342.5C176.816 344.173 182.936 343 186 343L215 343C217.682 343 224.749 344.266 226.5 341.833C228.793 338.649 227 328.897 227 325M230.167 325.5C227.929 327.111 227.929 340.889 230.167 342.5C232.566 344.227 239.124 343 242 343L272 343C274.675 343 280.591 344.114 282.833 342.5C285.071 340.889 285.071 327.111 282.833 325.5C280.591 323.886 274.675 325 272 325L242 325C239.124 325 232.566 323.773 230.167 325.5M287.167 325.5C284.929 327.111 284.929 340.889 287.167 342.5C289.409 344.114 295.325 343 298 343L328 343C331.121 343 337.454 344.213 339.833 341.833C341.847 339.82 342.263 327.249 339.833 325.5C337.591 323.886 331.675 325 329 325L299 325C296.124 325 289.566 323.773 287.167 325.5M344.167 325.5C341.929 327.111 341.929 340.889 344.167 342.5C346.409 344.114 352.325 343 355 343L385 343C388.121 343 394.454 344.213 396.833 341.833C398.95 339.716 399.209 327.447 396.667 325.5C394.401 323.765 387.764 325 385 325L355 325C352.325 325 346.409 323.886 344.167 325.5M400.333 325.5C397.51 327.663 398.029 340.747 401 342.5C403.617 344.044 409.042 343 412 343L441 343C443.876 343 450.434 344.227 452.833 342.5C455.071 340.889 455.071 327.111 452.833 325.5C450.591 323.886 444.675 325 442 325L412 325C409.236 325 402.599 323.765 400.333 325.5z"/>
<path style="fill:#fafaf9; stroke:none;" d="M14 332L14 336L17 336L17 332L14 332M41 332L40 336C42.6842 334.816 43.3984 333.937 41 332z"/>
<path style="fill:#8b72e3; stroke:none;" d="M42 332L43 333L42 332z"/>
<path style="fill:#fafaf9; stroke:none;" d="M44 332L44 336L45 336L44 332z"/>
<path style="fill:#8b72e3; stroke:none;" d="M45 332L46 333L45 332z"/>
<path style="fill:#fafaf9; stroke:none;" d="M46 332L46 336L47 336L46 332z"/>
<path style="fill:#8b72e3; stroke:none;" d="M72 332L72 334L74 332L72 332M101 332L101 334L103 332L101 332M141 332L142 333L141 332z"/>
<path style="fill:#fafaf9; stroke:none;" d="M142 332L142 336L143 336L142 332M144 335L145 335L147 333L144 335M199 332L200 333L199 332z"/>
<path style="fill:#8b72e3; stroke:none;" d="M200 332L199 336L200 336L200 332M202 332L203 333L202 332z"/>
<path style="fill:#fafaf9; stroke:none;" d="M203 332L202 336L203 336L203 333L204 333L204 336L205 336L203 332z"/>
<path style="fill:#8b72e3; stroke:none;" d="M204 332L205 333L204 332z"/>
<path style="fill:#fafaf9; stroke:none;" d="M255 332L256 333L255 332z"/>
<path style="fill:#8b72e3; stroke:none;" d="M256 332L255 336L260 337L261 336L256 332z"/>
<path style="fill:#fafaf9; stroke:none;" d="M258 332L258 333L260 335L261 335L258 332z"/>
<path style="fill:#8b72e3; stroke:none;" d="M312 332L313 333L312 332z"/>
<path style="fill:#fafaf9; stroke:none;" d="M313 332L313 336L314 336L313 332z"/>
<path style="fill:#8b72e3; stroke:none;" d="M315 332L316 333L315 332z"/>
<path style="fill:#fafaf9; stroke:none;" d="M315 335L316 335L318 334L318 333L315 335z"/>
<path style="fill:#8b72e3; stroke:none;" d="M368 332L369 333L368 332z"/>
<path style="fill:#fafaf9; stroke:none;" d="M369 332L369 336L370 336L369 332z"/>
<path style="fill:#8b72e3; stroke:none;" d="M371 332L372 333L371 332z"/>
<path style="fill:#fafaf9; stroke:none;" d="M371 335L372 335L374 333L371 335M426 332L427 333L426 332z"/>
<path style="fill:#8b72e3; stroke:none;" d="M427 332L426 336L427 332z"/>
<path style="fill:#fafaf9; stroke:none;" d="M429 332L429 336L430 336L430 333L431 333L431 336L432 336L431 332L429 332z"/>
<path style="fill:#8b72e3; stroke:none;" d="M431 332L432 333L431 332M14.3333 333.667L14.6667 334.333L14.3333 333.667z"/>
<path style="fill:#5638be; stroke:none;" d="M45 333L45 336L46 336L45 333z"/>
<path style="fill:#fafaf9; stroke:none;" d="M73 333L73 336L74 336L73 333M98.3333 333.667L98.6667 334.333L98.3333 333.667M102 333L102 336L103 336L102 333z"/>
<path style="fill:#5638be; stroke:none;" d="M145.333 333.667L145.667 334.333L145.333 333.667z"/>
<path style="fill:#8b72e3; stroke:none;" d="M146 333L144 335L144 336L148 333L146 333z"/>
<path style="fill:#fafaf9; stroke:none;" d="M196.333 333.667L196.667 334.333L196.333 333.667z"/>
<path style="fill:#5638be; stroke:none;" d="M203.333 333.667L203.667 334.333L203.333 333.667M259.333 333.667L259.667 334.333L259.333 333.667z"/>
<path style="fill:#8b72e3; stroke:none;" d="M308 334L308 335L312 335L308 334z"/>
<path style="fill:#5638be; stroke:none;" d="M316.333 333.667L316.667 334.333L316.333 333.667M372.333 333.667L372.667 334.333L372.333 333.667z"/>
<path style="fill:#8b72e3; stroke:none;" d="M373 333L371 336L372 337L375 333L373 333z"/>
<path style="fill:#fafaf9; stroke:none;" d="M423.333 333.667L423.667 334.333L423.333 333.667z"/>
<path style="fill:#5638be; stroke:none;" d="M430.333 333.667L430.667 334.333L430.333 333.667z"/>
<path style="fill:#8b72e3; stroke:none;" d="M40 334L41 335L40 334M70 334L71 335L70 334M97 334L98 335L97 334M99 334L100 335L99 334M139.667 334.333L140.333 334.667L139.667 334.333M195 334L196 335L195 334M197 334L198 335L197 334M252.667 334.333L253.333 334.667L252.667 334.333z"/>
<path style="fill:#fafaf9; stroke:none;" d="M309.667 334.333L310.333 334.667L309.667 334.333z"/>
<path style="fill:#8b72e3; stroke:none;" d="M315 336L316 337L318 334L315 336M366.667 334.333L367.333 334.667L366.667 334.333M422 334L423 335L422 334M424 334L425 335L424 334M42.6667 335.333L43.3333 335.667L42.6667 335.333M98 335L99 336L98 335z"/>
<path style="fill:#fafaf9; stroke:none;" d="M146 335L147 336L146 335z"/>
<path style="fill:#8b72e3; stroke:none;" d="M196 335L197 336L196 335z"/>
<path style="fill:#fafaf9; stroke:none;" d="M200 335L201 336L200 335z"/>
<path style="fill:#8b72e3; stroke:none;" d="M203.333 335.667L203.667 336.333L203.333 335.667z"/>
<path style="fill:#fafaf9; stroke:none;" d="M258 335L259 336L258 335M317 335L318 336L317 335M373 335L374 336L373 335z"/>
<path style="fill:#8b72e3; stroke:none;" d="M423 335L424 336L423 335M430.333 335.667L430.667 336.333L430.333 335.667M45 336L46 337L45 336z"/>
<path style="fill:#fafaf9; stroke:none;" d="M0 345L0 456L456 456L456 345L0 345z"/>
</svg>
